     <svg id="Capa_1" enable-background="new 0 0 512 512" height="80" viewBox="0 0 512 512" width="80" xmlns="http://www.w3.org/2000/svg"><g><path d="m241 196.856h30v140.112h-30z" fill="#e1ebf0"/><path d="m451.952 196.856h-30v55.056h-165.952l-10.008 15 10.008 15h195.952z" fill="#e1ebf0"/><path d="m90.048 251.912v-55.056h-30v85.056h195.952v-30z" fill="#fff5f5"/><path d="m74.285 76.035-23.012 73.427 23.011 63.419h74.285v-62.561c0-41.027-33.258-74.285-74.284-74.285z" fill="#e50058"/><path d="m74.285 76.035c-41.027 0-74.285 33.258-74.285 74.284v62.561h74.285z" fill="#ff5b5b"/><path d="m74.285 0-23.012 70.543 23.011 28.503c27.351 0 49.523-22.172 49.523-49.523s-22.172-49.523-49.522-49.523z" fill="#e3a76f"/><path d="m24.762 49.523c0 27.351 22.172 49.523 49.523 49.523v-99.046c-27.351 0-49.523 22.172-49.523 49.523z" fill="#f2d1a5"/><path d="m437.716 76.035-23.012 73.427 23.011 63.419h74.285v-62.561c0-41.027-33.258-74.285-74.284-74.285z" fill="#515be0"/><path d="m437.715 76.035c-41.026 0-74.285 33.258-74.285 74.285v62.561h74.285z" fill="#4895ff"/><path d="m256 321.968-20.016 95.016 20.016 95.016c52.392 0 95.016-42.624 95.016-95.016s-42.624-95.016-95.016-95.016z" fill="#ffde55"/><path d="m160.984 416.984c0 52.392 42.624 95.016 95.016 95.016v-190.032c-52.392 0-95.016 42.624-95.016 95.016z" fill="#fff79f"/><path d="m311.016 416.984c0-30.336-24.68-55.016-55.016-55.016l-20.016 55.016 20.016 55.016c30.336 0 55.016-24.68 55.016-55.016z" fill="#ffb655"/><path d="m200.984 416.984c0 30.336 24.68 55.016 55.016 55.016v-110.032c-30.336 0-55.016 24.68-55.016 55.016z" fill="#ffde55"/><path d="m256 99.046-59.531 20.016c-26.099-44.778 10.008-69.539 10.008-69.539h49.523z" fill="#495959"/><path d="m256 76.035-23.011 73.427 23.011 63.419h74.285v-62.561c0-41.027-33.259-74.285-74.285-74.285z" fill="#ffb655"/><path d="m256 76.035c-41.026 0-74.285 33.258-74.285 74.285v62.561h74.285z" fill="#ffde55"/><path d="m256 0-20.016 69.539 69.539-20.016c0-27.351-22.172-49.523-49.523-49.523z" fill="#323c3c"/><path d="m256 0c-27.351 0-49.523 22.172-49.523 49.523l49.523 20.016z" fill="#495959"/><path d="m256 99.046c27.351 0 49.523-22.172 49.523-49.523h-49.523l-20.016 26.511z" fill="#a65d4e"/><path d="m206.477 49.523c0 27.351 22.172 49.523 49.523 49.523v-49.523z" fill="#c38778"/><path d="m437.715 0c23.922 0 43.882 16.962 48.511 39.515l-68.527 20.016z" fill="#a65d4e"/><path d="m437.715 0c-23.922 0-43.882 16.962-48.511 39.515l48.511 20.016z" fill="#c38778"/><path d="m486.226 39.515c.663 3.232 1.012 6.579 1.012 10.008 0 27.351-22.172 49.523-49.523 49.523l-20.016-29.766 20.016-29.766h48.511z" fill="#ffcdbe"/><path d="m389.205 39.515c-.663 3.232-1.012 6.579-1.012 10.008 0 27.351 22.172 49.523 49.523 49.523v-59.531z" fill="#ffdecf"/></g></svg>  
                          